<svg version="1.1" id="Layer_1" xmlns="http://www.w3.org/2000/svg" xmlns:xlink="http://www.w3.org/1999/xlink" x="0px" y="0px"
	 width="100%" viewBox="0 0 1024 1024" enable-background="new 0 0 1024 1024" xml:space="preserve">
<path fill="#000000" opacity="1.000000" stroke="none" 
	d="
M434.564819,506.750580 
	C424.280457,509.773132 421.152313,516.537659 425.228180,526.052795 
	C429.620361,536.306213 433.704803,546.698669 438.365540,556.827148 
	C441.309387,563.224609 441.960876,569.520935 439.996979,576.191650 
	C438.545868,581.120422 439.277954,587.353516 435.786987,590.807983 
	C432.437256,594.122681 426.384186,592.721924 421.531219,593.389771 
	C382.830139,598.715393 344.113129,603.925415 305.397430,609.144409 
	C297.105957,610.262207 297.017273,610.032227 295.584656,601.867554 
	C290.668579,573.850342 285.700531,545.842041 280.645294,517.849670 
	C279.232330,510.025513 272.093048,504.734589 265.306976,505.885559 
	C259.481995,506.873505 252.873032,513.648987 255.158173,521.565369 
	C256.300903,525.524109 256.611420,529.720825 257.331757,533.804016 
	C262.468689,562.921631 267.497314,592.059021 272.810150,621.144531 
	C275.184937,634.145569 279.843719,637.271118 292.998260,635.552979 
	C330.396484,630.668213 367.787476,625.728088 405.185089,620.838501 
	C414.578156,619.610413 423.997437,618.579224 433.382935,617.298096 
	C445.939972,615.584167 457.360901,624.144775 459.187988,636.795288 
	C460.777100,647.798157 452.272400,658.518005 440.041504,660.140442 
	C413.026855,663.723694 385.968140,666.973877 358.933838,670.410583 
	C336.679108,673.239624 314.382904,675.800354 292.197235,679.099731 
	C265.929443,683.006165 237.722397,670.479126 225.835739,648.857117 
	C221.087204,640.219482 219.875381,630.578857 218.121338,621.088806 
	C212.289108,589.534241 206.724930,557.925476 200.451843,526.458374 
	C194.352783,495.864197 203.969971,470.284454 224.288574,448.012817 
	C239.713486,431.105194 258.564026,418.519928 278.242401,407.123230 
	C279.100494,406.626251 279.971985,406.082306 281.139465,406.441772 
	C282.647888,407.214264 282.614288,408.918091 283.017090,410.264709 
	C292.164978,440.849274 310.174225,464.878021 336.625824,482.592682 
	C342.705231,486.664062 349.153046,490.181854 355.371429,494.050598 
	C358.557953,496.033051 361.347290,495.916870 364.608582,493.870239 
	C392.227234,476.538116 410.506989,452.762360 416.304230,420.126495 
	C416.928040,416.614807 415.764221,412.801147 418.113953,409.018829 
	C423.513947,411.139069 428.138245,414.319061 432.724976,417.474457 
	C460.668091,436.697266 477.427826,463.305328 485.349243,496.084442 
	C493.317291,529.056274 502.112976,561.823242 511.255096,594.494690 
	C512.368469,598.473633 514.378113,599.759705 518.331116,599.706848 
	C530.992920,599.537659 543.660400,599.514038 556.322266,599.684570 
	C572.479675,599.902161 583.284546,617.448425 576.251770,631.902466 
	C572.147278,640.338196 564.594299,643.909729 555.924377,644.181580 
	C539.776917,644.688232 523.584595,644.780823 507.447418,644.134888 
	C500.243286,643.846497 493.132324,641.329285 485.968994,639.873352 
	C482.969910,639.263794 483.285156,636.730774 483.088928,634.738525 
	C482.357971,627.316406 480.168579,620.423096 476.211792,614.099121 
	C473.236053,609.343079 469.125458,605.688293 464.536591,602.612610 
	C461.912689,600.853882 461.352783,598.852234 461.944824,595.833374 
	C463.670197,587.035034 466.008972,578.364868 467.064178,569.415771 
	C467.492920,565.779785 467.081146,562.471985 465.967468,559.149536 
	C461.200439,544.927673 455.392456,531.109070 449.572693,517.299683 
	C446.864075,510.872528 442.588379,506.379974 434.564819,506.750580 
z"/>
<path fill="#000000" opacity="1.000000" stroke="none" 
	d="
M662.190186,777.453369 
	C664.648254,772.541443 668.678711,769.802002 672.997253,767.626587 
	C700.068726,753.989197 727.182617,740.435364 754.329956,726.949463 
	C760.799927,723.735413 764.235229,719.045105 763.922729,711.554260 
	C762.804810,684.764709 761.897827,657.966431 760.840698,631.174255 
	C760.541992,623.603638 754.442505,617.365784 747.657349,617.412781 
	C740.767273,617.460510 735.177124,623.719788 735.276672,631.599182 
	C735.552124,653.407410 736.705200,675.183411 738.037598,696.946960 
	C738.609924,706.297119 738.735901,706.194336 730.234924,710.526733 
	C709.458130,721.115479 688.693604,731.729797 668.021362,742.520020 
	C665.119141,744.034973 663.631775,743.491821 661.823120,741.096680 
	C653.189758,729.663940 644.434998,718.322937 635.720581,706.951477 
	C633.687195,704.298035 631.563599,701.744324 628.616272,700.013977 
	C624.051453,697.334167 618.225952,697.968018 614.274780,701.618591 
	C610.711914,704.910339 609.738464,710.131714 611.899963,714.805237 
	C613.807190,718.928894 616.824219,722.307373 619.534302,725.886353 
	C627.075745,735.845459 634.589722,745.825867 642.219238,755.717163 
	C644.123108,758.185364 644.184998,760.150085 642.381775,762.810364 
	C638.352539,768.755005 636.444580,775.662659 634.747375,782.936829 
	C633.487244,782.398132 632.615601,782.248718 632.051575,781.750793 
	C624.497620,775.081787 615.614685,771.817261 605.634644,771.419922 
	C603.334167,771.328308 601.907104,769.918518 600.696228,768.396484 
	C591.365784,756.668762 581.624512,745.238159 573.762939,732.417542 
	C570.292297,726.757629 568.660889,720.541321 568.682129,713.868469 
	C568.725708,700.204163 568.841248,686.536743 568.589783,672.876831 
	C568.516785,668.912109 569.807312,667.065674 573.478882,665.529114 
	C597.452820,655.496216 608.119934,631.762695 599.915771,607.284546 
	C598.139587,601.984863 595.169861,597.383606 591.330383,593.368591 
	C589.438599,591.390381 588.827026,589.456055 589.554688,586.643372 
	C597.825928,554.671936 617.757446,531.328979 644.003845,512.605042 
	C645.805847,511.319580 647.650452,511.132751 649.622314,512.217590 
	C650.642578,512.778809 651.666687,513.413330 652.770691,513.728821 
	C659.534485,515.661926 662.384766,519.069153 661.677979,527.035645 
	C660.744507,537.556458 671.719421,548.567993 683.864319,551.515137 
	C695.493408,554.337158 706.455078,552.621460 716.180359,545.556702 
	C724.563293,539.467102 729.272278,531.414185 727.058594,520.596436 
	C726.560913,518.164307 727.258667,516.766296 729.510315,515.956055 
	C730.763306,515.505188 732.172424,515.212158 733.191711,514.431091 
	C741.705383,507.906860 748.661987,511.235199 756.298889,516.826416 
	C787.839050,539.917969 805.801636,571.009888 812.029419,609.227356 
	C812.855286,614.295593 813.214233,619.492126 813.232544,624.631165 
	C813.340576,654.959290 813.306274,685.288025 813.274658,715.616516 
	C813.254883,734.584717 805.626160,748.842712 788.130371,757.551819 
	C756.816345,773.139404 725.710693,789.144958 694.444214,804.828735 
	C683.334473,810.401611 672.981873,809.528625 665.976624,802.983643 
	C658.933289,796.403076 657.707764,788.612244 662.190186,777.453369 
z"/>
<path fill="#000000" opacity="1.000000" stroke="none" 
	d="
M599.967896,351.057861 
	C596.190735,347.687775 592.776428,348.709656 589.207031,350.827026 
	C578.169067,357.374634 574.959473,368.080658 574.430542,379.757233 
	C573.012756,411.053070 580.272888,440.281708 597.333801,466.654907 
	C601.872986,473.671814 601.671326,480.162231 599.526062,487.453125 
	C591.630920,514.285767 564.790161,532.328857 536.293152,525.167542 
	C521.712219,521.503418 512.468628,511.630920 507.700806,497.636505 
	C505.495300,491.162994 510.031281,486.666443 517.062378,487.841003 
	C520.469055,488.410095 523.638916,489.880188 527.329163,489.338745 
	C535.603149,488.124725 540.707275,483.087189 544.374512,476.128204 
	C548.573486,468.160217 549.983643,459.467468 550.704041,450.629425 
	C552.116821,433.296844 548.313354,416.523529 545.302673,399.645782 
	C542.891113,386.126587 541.762817,372.493774 545.994751,359.116455 
	C552.772583,337.691528 567.434998,325.196045 589.676575,321.887054 
	C592.603577,321.451569 594.370728,320.427795 596.037659,317.999725 
	C601.328491,310.293121 610.037537,307.696625 618.417969,311.650024 
	C621.959534,313.320740 623.967285,312.838440 626.510376,310.122314 
	C640.198181,295.503418 657.205444,286.829773 676.790100,283.405304 
	C706.855530,278.148224 733.515442,285.582214 756.519287,305.768433 
	C757.395508,306.537354 758.270386,307.318909 759.059143,308.174561 
	C762.311768,311.703430 765.062134,313.844971 770.754578,311.153961 
	C778.480652,307.501648 786.138550,310.723297 791.049622,318.146759 
	C792.734436,320.693481 794.490723,321.553253 797.440369,321.788574 
	C820.359253,323.616943 839.793884,342.948303 843.426331,366.394501 
	C845.861145,382.110291 842.751099,397.179016 839.891907,412.386688 
	C836.520813,430.317535 835.024780,448.288391 839.335693,466.320190 
	C842.400269,479.138794 849.988281,487.297058 860.362793,488.988617 
	C863.607483,489.517700 866.632568,488.746460 869.724304,488.126495 
	C872.985168,487.472595 876.307678,486.476044 878.985474,489.618195 
	C881.782593,492.900482 880.999390,496.232788 879.616150,499.880615 
	C869.575012,526.361511 839.867554,532.652832 817.847046,522.171387 
	C800.626953,513.974915 790.309143,500.048889 786.978088,481.125336 
	C786.232300,476.888794 786.712830,473.137238 789.105103,469.250397 
	C805.767334,442.178467 814.224792,412.837219 812.658691,380.883423 
	C812.204590,371.618317 810.813477,362.622589 804.144653,355.377594 
	C801.592896,352.605316 798.606018,350.545074 795.038147,349.469940 
	C789.145447,347.694092 784.982788,351.622131 786.199280,357.619080 
	C794.160706,396.864502 786.990723,432.803131 761.799805,464.319611 
	C747.230774,482.547058 728.168091,494.076538 704.874634,497.522797 
	C680.400940,501.143738 658.466919,494.275299 639.750244,478.587555 
	C611.850769,455.203033 599.392517,424.389069 598.621704,388.396851 
	C598.388611,377.513428 599.184509,366.770935 601.932739,356.225189 
	C602.498413,354.054596 602.677185,352.288391 599.967896,351.057861 
M755.386902,400.854218 
	C732.945801,396.045197 712.680542,387.055420 696.543274,370.168121 
	C694.560730,368.093445 692.964233,368.682770 691.036194,370.379150 
	C684.041138,376.533722 677.050964,382.687683 668.812134,387.243103 
	C657.798828,393.332611 646.174133,397.714325 633.862305,400.253998 
	C630.550720,400.937073 628.862793,402.362915 629.634949,406.088470 
	C633.365662,424.088226 640.735413,440.166199 653.902344,453.321686 
	C670.807617,470.212250 696.848694,475.693176 715.911316,465.868591 
	C740.679138,453.103546 753.278442,431.774933 757.831116,404.987854 
	C758.129700,403.231354 758.406555,401.610504 755.386902,400.854218 
z"/>
<path fill="#000000" opacity="1.000000" stroke="none" 
	d="
M507.095612,764.177979 
	C497.345337,766.328979 488.500092,769.712219 480.319977,774.663757 
	C478.002319,776.066650 476.226074,776.021301 473.908264,774.755737 
	C449.376831,761.360168 422.962585,759.529541 395.795471,762.018738 
	C378.333496,763.618713 361.389648,767.778931 344.374573,771.675415 
	C339.859375,772.709473 335.121765,772.439819 330.680145,774.173523 
	C318.110291,779.079712 309.975861,788.287476 306.404236,800.938171 
	C301.118866,819.659119 296.609314,838.602478 291.984772,857.503845 
	C291.089172,861.164307 289.746674,862.499207 285.706879,862.487793 
	C252.218170,862.392822 218.727692,862.499268 185.240295,862.814270 
	C180.482086,862.859009 178.690262,861.641724 178.827118,856.750305 
	C179.111298,846.593079 179.104477,836.419128 178.870407,826.260071 
	C178.768356,821.830139 180.379532,820.442139 184.698608,820.609497 
	C192.139908,820.897766 199.600464,820.689209 206.833923,820.689209 
	C208.141129,817.555664 206.325500,815.894653 205.361847,814.106995 
	C196.593124,797.840027 194.378555,780.474487 196.316910,762.326782 
	C198.734619,739.691162 207.642242,718.973755 215.148407,697.837341 
	C216.207382,694.855469 217.335907,691.898315 218.415894,688.923828 
	C220.727692,682.556641 221.111313,682.348206 226.622620,685.878357 
	C237.660675,692.948486 249.633514,697.802551 262.161652,701.507874 
	C271.967285,704.408020 281.974701,704.413635 291.885925,703.340820 
	C315.991425,700.731750 340.046326,697.644653 364.105621,694.622681 
	C388.836853,691.516296 413.549744,688.263489 438.269226,685.063843 
	C443.541077,684.381470 445.532959,683.830627 446.852112,690.546265 
	C448.838562,700.659119 452.430054,710.326904 457.651733,719.396179 
	C464.338806,731.010742 473.620728,739.148071 486.245422,743.799988 
	C497.646912,748.001160 508.845154,752.755249 520.117676,757.303711 
	C521.894775,758.020752 523.979675,758.365601 525.284302,760.900146 
	C519.124329,762.003296 513.312805,763.044006 507.095612,764.177979 
z"/>
<path fill="#000000" opacity="1.000000" stroke="none" 
	d="
M272.864471,217.078033 
	C280.736328,196.637924 292.940552,179.744980 310.344452,167.128189 
	C331.199463,152.009521 354.802429,144.724564 380.469757,148.398987 
	C429.015320,155.348572 457.134979,185.420837 468.058075,231.603317 
	C477.899200,273.211395 469.244812,312.498932 447.255005,348.829376 
	C435.662933,367.981262 420.087280,382.917542 398.518738,390.508698 
	C369.602264,400.686005 342.482971,396.726440 318.462708,377.834106 
	C288.844116,354.538544 272.609650,323.234192 266.565826,286.254913 
	C262.719391,262.720306 265.059937,239.878922 272.864471,217.078033 
M341.096008,276.675903 
	C331.411835,282.689301 320.993774,287.051575 310.123322,290.375519 
	C306.434113,291.503662 303.659088,293.177490 304.612183,297.758240 
	C308.946045,318.587616 317.146606,337.292267 333.270447,351.962585 
	C356.407440,373.013885 385.621429,373.076660 408.063568,351.361755 
	C430.323181,329.823517 437.396362,301.799713 440.659119,272.312256 
	C440.996643,269.261841 439.041748,267.891571 436.675964,266.669464 
	C419.576508,257.836304 406.019470,245.046387 395.108612,229.314651 
	C391.230347,223.722794 389.888336,223.728058 386.561676,229.569153 
	C375.539581,248.922501 360.665161,264.557404 341.096008,276.675903 
z"/>
<path fill="#000000" opacity="1.000000" stroke="none" 
	d="
M518.816162,885.734802 
	C511.630920,887.182434 506.024536,890.326538 501.628632,895.830566 
	C497.351501,901.185608 490.947510,902.473511 484.635773,903.113586 
	C479.524902,903.631897 474.301910,903.474487 469.158844,903.145203 
	C461.591675,902.660706 454.921143,900.147278 450.062012,893.794739 
	C445.696228,888.087036 439.205139,886.401489 432.515411,885.383179 
	C415.367615,882.773193 398.772339,886.073059 382.187683,889.960144 
	C366.635345,893.605286 351.447937,898.652344 335.760132,901.765808 
	C319.224243,905.047546 307.621826,893.334229 311.580078,876.999390 
	C316.788544,855.505188 322.148560,834.046753 327.589752,812.610168 
	C330.523438,801.052490 334.972870,797.625488 346.837982,795.585938 
	C361.573853,793.052795 376.128906,789.332397 390.924011,787.309692 
	C415.074707,784.007996 439.106812,783.930237 461.783417,795.058411 
	C466.288544,797.269226 470.550903,799.887451 474.228851,803.327454 
	C475.969940,804.955994 477.409821,805.280029 479.356018,803.561096 
	C494.304810,790.357727 512.595825,786.801636 531.676453,785.694519 
	C554.056458,784.395874 575.697937,789.085388 597.309387,793.968933 
	C601.851135,794.995178 606.454285,795.766846 610.964722,796.909973 
	C616.926636,798.420959 621.029236,802.241028 622.613831,808.161987 
	C628.973999,831.926514 635.315796,855.698181 641.351624,879.546326 
	C644.730042,892.894897 633.822693,904.216187 618.883240,901.916626 
	C603.879395,899.607178 589.597351,894.357910 574.941528,890.618225 
	C556.618042,885.942749 538.218018,882.578369 518.816162,885.734802 
M351.091125,861.333984 
	C356.250305,860.034546 361.401367,858.701843 366.570038,857.441345 
	C388.079559,852.195862 409.563232,846.972412 432.052917,849.591248 
	C447.950714,851.442383 462.750336,855.564453 474.281189,867.557251 
	C475.049835,868.356750 475.784943,869.422974 477.191437,869.130188 
	C479.558746,867.041321 481.816223,864.809875 484.311584,862.887146 
	C498.492920,851.960510 515.300171,849.385315 532.384277,848.953003 
	C551.656311,848.465393 570.336060,852.893616 588.872437,857.835327 
	C594.204590,859.256897 599.487061,861.578796 605.062927,860.966431 
	C605.985535,858.997131 605.273926,857.611145 604.917908,856.171631 
	C603.199890,849.225159 601.515320,842.270325 599.829834,835.315735 
	C595.097351,815.788940 599.939026,820.499695 580.371033,815.850830 
	C562.351868,811.570007 544.195007,808.363770 525.523499,811.285583 
	C508.109589,814.010498 492.406555,819.968994 480.628326,833.877502 
	C479.408295,835.318176 478.412170,837.254822 475.960693,837.612183 
	C475.041199,836.777161 473.971619,835.978455 473.109528,834.997375 
	C457.612823,817.362793 437.437653,810.733093 414.709259,810.322754 
	C395.721588,809.979919 377.472015,814.837769 359.081848,818.630737 
	C356.676758,819.126709 355.662231,820.695740 355.077637,823.096313 
	C352.363312,834.242126 349.405243,845.328491 346.618591,856.457153 
	C346.231812,858.001892 345.595459,859.649109 346.408539,861.250854 
	C347.714050,862.153137 349.037872,861.648621 351.091125,861.333984 
z"/>
<path fill="#000000" opacity="1.000000" stroke="none" 
	d="
M307.401703,136.091675 
	C308.752014,136.714386 310.098969,136.719940 310.552307,138.593536 
	C306.769745,141.010559 302.847687,143.415390 299.028503,145.973770 
	C275.935913,161.442993 260.088226,182.697403 250.586578,208.538132 
	C233.455521,255.127945 237.383865,300.352539 261.162384,343.768311 
	C264.647797,350.132202 265.384064,355.678894 263.020447,362.554901 
	C255.177124,385.371948 242.950195,404.812225 221.201950,416.505005 
	C191.023376,432.730316 150.115814,426.038879 131.928040,386.276703 
	C131.033234,384.320496 130.241730,382.230225 129.911530,380.122589 
	C129.398132,376.845612 128.911118,373.369202 132.091431,370.928223 
	C135.211655,368.533295 138.516983,368.693390 141.971039,370.275269 
	C146.367432,372.288696 150.843018,374.207611 155.724060,374.602509 
	C169.978226,375.755646 182.127747,365.800690 184.686829,351.282898 
	C187.472794,335.477997 184.650391,320.096710 181.303024,304.799652 
	C177.708710,288.374054 173.811172,271.945801 173.277100,255.121429 
	C171.872803,210.884903 184.982254,172.776443 223.129501,146.970093 
	C246.393478,131.232147 272.512848,128.211884 299.766632,134.207687 
	C302.204102,134.743927 304.622162,135.368301 307.401703,136.091675 
z"/>
<path fill="#000000" opacity="1.000000" stroke="none" 
	d="
M673.042603,862.986328 
	C660.455322,862.510986 661.741577,865.117493 658.454590,852.080139 
	C656.143311,842.912842 653.862305,833.737915 651.609192,824.731812 
	C653.784851,823.142273 654.851685,824.607422 655.989136,825.375122 
	C670.077393,834.884155 685.292786,835.781799 700.213196,828.879822 
	C723.335754,818.183594 745.903137,806.287964 768.717163,794.923340 
	C779.155945,789.723450 789.641296,784.616821 800.060303,779.377930 
	C802.574585,778.113708 804.926880,777.916443 807.722961,778.516541 
	C819.454346,781.034424 831.330261,782.964783 841.009460,791.007812 
	C854.279419,802.034363 859.709900,816.137512 855.781189,832.810120 
	C851.948914,849.073303 840.906372,858.755127 824.441711,861.990662 
	C822.502563,862.371704 820.463074,862.331299 818.469849,862.334778 
	C791.983093,862.380432 765.496155,862.336060 739.009705,862.443970 
	C717.184448,862.532898 695.359802,862.794250 673.042603,862.986328 
z"/>
<path fill="#000000" opacity="1.000000" stroke="none" 
	d="
M350.443054,418.600220 
	C363.770264,420.577667 376.671722,420.024231 389.185150,418.181396 
	C390.724152,420.059326 390.195312,421.506348 389.817963,422.945007 
	C385.172699,440.655457 374.648865,454.168640 360.017578,464.772125 
	C358.613983,465.789307 357.365082,465.889862 355.893890,464.996216 
	C332.005829,450.486664 315.148865,430.505341 307.749847,403.165741 
	C307.633850,402.737152 307.865723,402.214417 308.112823,400.513214 
	C321.293274,409.168610 334.999329,415.497345 350.443054,418.600220 
z"/>
<path fill="#000000" opacity="1.000000" stroke="none" 
	d="
M540.593384,761.199219 
	C539.220032,761.009399 538.132507,761.177795 537.308167,759.574951 
	C543.273682,755.636414 549.836609,752.782166 556.377808,749.913818 
	C556.932434,749.670532 558.173035,750.071289 558.591187,750.583923 
	C561.677002,754.367188 565.101074,757.932434 567.903870,763.327881 
	C558.290283,762.558167 549.713562,760.755798 540.593384,761.199219 
z"/>
</svg>